<svg width="1024" height="1024" viewBox="0 0 1024 1024" fill="none" xmlns="http://www.w3.org/2000/svg">
<circle cx="512" cy="512" r="512" fill="#121212"/>
<path d="M512.154 160L441.789 230.329L705.164 493.571C709.964 498.368 712.657 504.882 712.661 511.663C712.656 518.456 709.956 524.966 705.164 529.756L582.524 652.334L652.892 722.667L792.287 583.343C831.892 543.758 831.893 479.577 792.287 439.992L512.154 160Z" fill="#D9D9D9"/>
<path d="M512.846 863L583.211 792.671L319.836 529.43C315.036 524.632 312.343 518.118 312.339 511.337C312.344 504.544 315.044 498.034 319.836 493.245L442.476 370.667L372.108 300.334L232.713 439.658C193.108 479.242 193.107 543.423 232.713 583.008L512.846 863Z" fill="#D9D9D9"/>
<path d="M526.709 448.057V633.167H496.292V448.057L414.715 529.634L393.207 508.127L511.5 389.833L629.794 508.127L608.286 529.634L526.709 448.057Z" fill="#D9D9D9"/>
</svg>
